<?xml version="1.0" encoding="UTF-8"?>
<svg id="keyboard" xmlns="http://www.w3.org/2000/svg" viewBox="0 0 3840 2160">
  <defs>
    <style>
      .cls-1 {
        fill: #f4f4f4;
      }

      .cls-2 {
        fill: #fff;
      }

      .cls-3 {
        fill: #aaa;
      }

      .cls-4 {
        fill: #eee;
      }
    </style>
  </defs>
  <g>
    <rect class="cls-4" x="663.5" y="672.75" width="2515.5" height="813.5" rx="10" ry="10"/>
    <path class="cls-4" d="m3169,674.75c4.41,0,8,3.59,8,8v793.5c0,4.41-3.59,8-8,8H673.5c-4.41,0-8-3.59-8-8v-793.5c0-4.41,3.59-8,8-8h2495.5m0-4H673.5c-6.63,0-12,5.37-12,12v793.5c0,6.63,5.37,12,12,12h2495.5c6.63,0,12-5.37,12-12v-793.5c0-6.63-5.37-12-12-12h0Z"/>
  </g>
  <g id="escape">
    <rect class="cls-1" x="667.5" y="676.5" width="158" height="158" rx="6" ry="6"/>
    <path class="cls-4" d="m819.5,678.5c2.21,0,4,1.79,4,4v146c0,2.21-1.79,4-4,4h-146c-2.21,0-4-1.79-4-4v-146c0-2.21,1.79-4,4-4h146m0-4h-146c-4.42,0-8,3.58-8,8v146c0,4.42,3.58,8,8,8h146c4.42,0,8-3.58,8-8v-146c0-4.42-3.58-8-8-8h0Z"/>
  </g>
  <g>
    <rect class="cls-2" x="829.5" y="676.5" width="158" height="158" rx="6" ry="6"/>
    <path class="cls-4" d="m981.5,678.5c2.21,0,4,1.79,4,4v146c0,2.21-1.79,4-4,4h-146c-2.21,0-4-1.79-4-4v-146c0-2.21,1.79-4,4-4h146m0-4h-146c-4.42,0-8,3.58-8,8v146c0,4.42,3.58,8,8,8h146c4.42,0,8-3.58,8-8v-146c0-4.42-3.58-8-8-8h0Z"/>
  </g>
  <g>
    <rect class="cls-2" x="991.5" y="676.5" width="158" height="158" rx="6" ry="6"/>
    <path class="cls-4" d="m1143.5,678.5c2.21,0,4,1.79,4,4v146c0,2.21-1.79,4-4,4h-146c-2.21,0-4-1.79-4-4v-146c0-2.21,1.79-4,4-4h146m0-4h-146c-4.42,0-8,3.58-8,8v146c0,4.42,3.58,8,8,8h146c4.42,0,8-3.58,8-8v-146c0-4.42-3.58-8-8-8h0Z"/>
  </g>
  <g>
    <rect class="cls-2" x="1153.5" y="676.5" width="158" height="158" rx="6" ry="6"/>
    <path class="cls-4" d="m1305.5,678.5c2.21,0,4,1.79,4,4v146c0,2.21-1.79,4-4,4h-146c-2.21,0-4-1.79-4-4v-146c0-2.21,1.79-4,4-4h146m0-4h-146c-4.42,0-8,3.58-8,8v146c0,4.42,3.58,8,8,8h146c4.42,0,8-3.58,8-8v-146c0-4.42-3.58-8-8-8h0Z"/>
  </g>
  <g>
    <rect class="cls-2" x="1315.5" y="676.5" width="158" height="158" rx="6" ry="6"/>
    <path class="cls-4" d="m1467.5,678.5c2.21,0,4,1.79,4,4v146c0,2.21-1.79,4-4,4h-146c-2.21,0-4-1.79-4-4v-146c0-2.21,1.79-4,4-4h146m0-4h-146c-4.42,0-8,3.58-8,8v146c0,4.42,3.58,8,8,8h146c4.42,0,8-3.58,8-8v-146c0-4.42-3.58-8-8-8h0Z"/>
  </g>
  <g>
    <rect class="cls-2" x="1477.5" y="676.5" width="158" height="158" rx="6" ry="6"/>
    <path class="cls-4" d="m1629.5,678.5c2.21,0,4,1.79,4,4v146c0,2.21-1.79,4-4,4h-146c-2.21,0-4-1.79-4-4v-146c0-2.21,1.79-4,4-4h146m0-4h-146c-4.42,0-8,3.58-8,8v146c0,4.42,3.58,8,8,8h146c4.42,0,8-3.58,8-8v-146c0-4.42-3.58-8-8-8h0Z"/>
  </g>
  <g>
    <rect class="cls-2" x="1639.5" y="676.5" width="158" height="158" rx="6" ry="6"/>
    <path class="cls-4" d="m1791.5,678.5c2.21,0,4,1.79,4,4v146c0,2.21-1.79,4-4,4h-146c-2.21,0-4-1.79-4-4v-146c0-2.21,1.79-4,4-4h146m0-4h-146c-4.42,0-8,3.58-8,8v146c0,4.42,3.58,8,8,8h146c4.42,0,8-3.58,8-8v-146c0-4.42-3.58-8-8-8h0Z"/>
  </g>
  <g>
    <rect class="cls-2" x="1801.5" y="676.5" width="158" height="158" rx="6" ry="6"/>
    <path class="cls-4" d="m1953.5,678.5c2.21,0,4,1.79,4,4v146c0,2.21-1.79,4-4,4h-146c-2.21,0-4-1.79-4-4v-146c0-2.21,1.79-4,4-4h146m0-4h-146c-4.42,0-8,3.58-8,8v146c0,4.42,3.58,8,8,8h146c4.42,0,8-3.58,8-8v-146c0-4.42-3.58-8-8-8h0Z"/>
  </g>
  <g>
    <rect class="cls-2" x="1963.5" y="676.5" width="158" height="158" rx="6" ry="6"/>
    <path class="cls-4" d="m2115.5,678.5c2.21,0,4,1.79,4,4v146c0,2.21-1.79,4-4,4h-146c-2.21,0-4-1.79-4-4v-146c0-2.21,1.79-4,4-4h146m0-4h-146c-4.42,0-8,3.58-8,8v146c0,4.42,3.58,8,8,8h146c4.42,0,8-3.58,8-8v-146c0-4.42-3.58-8-8-8h0Z"/>
  </g>
  <g>
    <rect class="cls-2" x="2125.5" y="676.5" width="158" height="158" rx="6" ry="6"/>
    <path class="cls-4" d="m2277.5,678.5c2.21,0,4,1.79,4,4v146c0,2.21-1.79,4-4,4h-146c-2.21,0-4-1.79-4-4v-146c0-2.21,1.79-4,4-4h146m0-4h-146c-4.42,0-8,3.58-8,8v146c0,4.42,3.58,8,8,8h146c4.42,0,8-3.58,8-8v-146c0-4.42-3.58-8-8-8h0Z"/>
  </g>
  <g>
    <rect class="cls-2" x="2287.5" y="676.5" width="158" height="158" rx="6" ry="6"/>
    <path class="cls-4" d="m2439.5,678.5c2.21,0,4,1.79,4,4v146c0,2.21-1.79,4-4,4h-146c-2.21,0-4-1.79-4-4v-146c0-2.21,1.79-4,4-4h146m0-4h-146c-4.42,0-8,3.58-8,8v146c0,4.42,3.58,8,8,8h146c4.42,0,8-3.58,8-8v-146c0-4.42-3.58-8-8-8h0Z"/>
  </g>
  <g>
    <rect class="cls-2" x="2449.5" y="676.5" width="158" height="158" rx="6" ry="6"/>
    <path class="cls-4" d="m2601.5,678.5c2.21,0,4,1.79,4,4v146c0,2.21-1.79,4-4,4h-146c-2.21,0-4-1.79-4-4v-146c0-2.21,1.79-4,4-4h146m0-4h-146c-4.42,0-8,3.58-8,8v146c0,4.42,3.58,8,8,8h146c4.42,0,8-3.58,8-8v-146c0-4.42-3.58-8-8-8h0Z"/>
  </g>
  <g>
    <rect class="cls-2" x="2611.5" y="676.5" width="158" height="158" rx="6" ry="6"/>
    <path class="cls-4" d="m2763.5,678.5c2.21,0,4,1.79,4,4v146c0,2.21-1.79,4-4,4h-146c-2.21,0-4-1.79-4-4v-146c0-2.21,1.79-4,4-4h146m0-4h-146c-4.42,0-8,3.58-8,8v146c0,4.42,3.58,8,8,8h146c4.42,0,8-3.58,8-8v-146c0-4.42-3.58-8-8-8h0Z"/>
  </g>
  <g>
    <rect class="cls-2" x="2773" y="676.5" width="240" height="158" rx="6" ry="6"/>
    <path class="cls-4" d="m3007,678.5c2.21,0,4,1.79,4,4v146c0,2.21-1.79,4-4,4h-228c-2.21,0-4-1.79-4-4v-146c0-2.21,1.79-4,4-4h228m0-4h-228c-4.42,0-8,3.58-8,8v146c0,4.42,3.58,8,8,8h228c4.42,0,8-3.58,8-8v-146c0-4.42-3.58-8-8-8h0Z"/>
  </g>
  <g>
    <rect class="cls-2" x="3017" y="676.5" width="158" height="158" rx="6" ry="6"/>
    <path class="cls-4" d="m3169,678.5c2.21,0,4,1.79,4,4v146c0,2.21-1.79,4-4,4h-146c-2.21,0-4-1.79-4-4v-146c0-2.21,1.79-4,4-4h146m0-4h-146c-4.42,0-8,3.58-8,8v146c0,4.42,3.58,8,8,8h146c4.42,0,8-3.58,8-8v-146c0-4.42-3.58-8-8-8h0Z"/>
  </g>
  <g>
    <rect class="cls-2" x="667.5" y="838.5" width="239.5" height="158" rx="6" ry="6"/>
    <path class="cls-4" d="m901,840.5c2.21,0,4,1.79,4,4v146c0,2.21-1.79,4-4,4h-227.5c-2.21,0-4-1.79-4-4v-146c0-2.21,1.79-4,4-4h227.5m0-4h-227.5c-4.42,0-8,3.58-8,8v146c0,4.42,3.58,8,8,8h227.5c4.42,0,8-3.58,8-8v-146c0-4.42-3.58-8-8-8h0Z"/>
  </g>
  <g>
    <rect class="cls-2" x="667.5" y="1000.5" width="281.5" height="158" rx="6" ry="6"/>
    <path class="cls-4" d="m943,1002.5c2.21,0,4,1.79,4,4v146c0,2.21-1.79,4-4,4h-269.5c-2.21,0-4-1.79-4-4v-146c0-2.21,1.79-4,4-4h269.5m0-4h-269.5c-4.42,0-8,3.58-8,8v146c0,4.42,3.58,8,8,8h269.5c4.42,0,8-3.58,8-8v-146c0-4.42-3.58-8-8-8h0Z"/>
  </g>
  <g>
    <rect class="cls-2" x="667.5" y="1162.5" width="362.5" height="158" rx="6" ry="6"/>
    <path class="cls-4" d="m1024,1164.5c2.21,0,4,1.79,4,4v146c0,2.21-1.79,4-4,4h-350.5c-2.21,0-4-1.79-4-4v-146c0-2.21,1.79-4,4-4h350.5m0-4h-350.5c-4.42,0-8,3.58-8,8v146c0,4.42,3.58,8,8,8h350.5c4.42,0,8-3.58,8-8v-146c0-4.42-3.58-8-8-8h0Z"/>
  </g>
  <g>
    <rect class="cls-2" x="911" y="838.5" width="158" height="158" rx="6" ry="6"/>
    <path class="cls-4" d="m1063,840.5c2.21,0,4,1.79,4,4v146c0,2.21-1.79,4-4,4h-146c-2.21,0-4-1.79-4-4v-146c0-2.21,1.79-4,4-4h146m0-4h-146c-4.42,0-8,3.58-8,8v146c0,4.42,3.58,8,8,8h146c4.42,0,8-3.58,8-8v-146c0-4.42-3.58-8-8-8h0Z"/>
  </g>
  <g id="movement">
    <rect class="cls-1" x="1073" y="838.5" width="158" height="158" rx="6" ry="6"/>
    <path class="cls-4" d="m1225,840.5c2.21,0,4,1.79,4,4v146c0,2.21-1.79,4-4,4h-146c-2.21,0-4-1.79-4-4v-146c0-2.21,1.79-4,4-4h146m0-4h-146c-4.42,0-8,3.58-8,8v146c0,4.42,3.58,8,8,8h146c4.42,0,8-3.58,8-8v-146c0-4.42-3.58-8-8-8h0Z"/>
  </g>
  <g>
    <rect class="cls-2" x="1235" y="838.5" width="158" height="158" rx="6" ry="6"/>
    <path class="cls-4" d="m1387,840.5c2.21,0,4,1.79,4,4v146c0,2.21-1.79,4-4,4h-146c-2.21,0-4-1.79-4-4v-146c0-2.21,1.79-4,4-4h146m0-4h-146c-4.42,0-8,3.58-8,8v146c0,4.42,3.58,8,8,8h146c4.42,0,8-3.58,8-8v-146c0-4.42-3.58-8-8-8h0Z"/>
  </g>
  <g id="reset">
    <rect class="cls-1" x="1397" y="838.5" width="158" height="158" rx="6" ry="6"/>
    <path class="cls-4" d="m1549,840.5c2.21,0,4,1.79,4,4v146c0,2.21-1.79,4-4,4h-146c-2.21,0-4-1.79-4-4v-146c0-2.21,1.79-4,4-4h146m0-4h-146c-4.42,0-8,3.58-8,8v146c0,4.42,3.58,8,8,8h146c4.42,0,8-3.58,8-8v-146c0-4.42-3.58-8-8-8h0Z"/>
  </g>
  <g>
    <rect class="cls-2" x="1559" y="838.5" width="158" height="158" rx="6" ry="6"/>
    <path class="cls-4" d="m1711,840.5c2.21,0,4,1.79,4,4v146c0,2.21-1.79,4-4,4h-146c-2.21,0-4-1.79-4-4v-146c0-2.21,1.79-4,4-4h146m0-4h-146c-4.42,0-8,3.58-8,8v146c0,4.42,3.58,8,8,8h146c4.42,0,8-3.58,8-8v-146c0-4.42-3.58-8-8-8h0Z"/>
  </g>
  <g>
    <rect class="cls-2" x="1721" y="838.5" width="158" height="158" rx="6" ry="6"/>
    <path class="cls-4" d="m1873,840.5c2.21,0,4,1.79,4,4v146c0,2.21-1.79,4-4,4h-146c-2.21,0-4-1.79-4-4v-146c0-2.21,1.79-4,4-4h146m0-4h-146c-4.42,0-8,3.58-8,8v146c0,4.42,3.58,8,8,8h146c4.42,0,8-3.58,8-8v-146c0-4.42-3.58-8-8-8h0Z"/>
  </g>
  <g>
    <rect class="cls-2" x="1883" y="838.5" width="158" height="158" rx="6" ry="6"/>
    <path class="cls-4" d="m2035,840.5c2.21,0,4,1.79,4,4v146c0,2.21-1.79,4-4,4h-146c-2.21,0-4-1.79-4-4v-146c0-2.21,1.79-4,4-4h146m0-4h-146c-4.42,0-8,3.58-8,8v146c0,4.42,3.58,8,8,8h146c4.42,0,8-3.58,8-8v-146c0-4.42-3.58-8-8-8h0Z"/>
  </g>
  <g>
    <rect class="cls-2" x="2045" y="838.5" width="158" height="158" rx="6" ry="6"/>
    <path class="cls-4" d="m2197,840.5c2.21,0,4,1.79,4,4v146c0,2.21-1.79,4-4,4h-146c-2.21,0-4-1.79-4-4v-146c0-2.21,1.79-4,4-4h146m0-4h-146c-4.42,0-8,3.58-8,8v146c0,4.42,3.58,8,8,8h146c4.42,0,8-3.58,8-8v-146c0-4.42-3.58-8-8-8h0Z"/>
  </g>
  <g>
    <rect class="cls-2" x="2207" y="838.5" width="158" height="158" rx="6" ry="6"/>
    <path class="cls-4" d="m2359,840.5c2.21,0,4,1.79,4,4v146c0,2.21-1.79,4-4,4h-146c-2.21,0-4-1.79-4-4v-146c0-2.21,1.79-4,4-4h146m0-4h-146c-4.42,0-8,3.58-8,8v146c0,4.42,3.58,8,8,8h146c4.42,0,8-3.58,8-8v-146c0-4.42-3.58-8-8-8h0Z"/>
  </g>
  <g id="pause">
    <rect class="cls-1" x="2369" y="838.5" width="158" height="158" rx="6" ry="6"/>
    <path class="cls-4" d="m2521,840.5c2.21,0,4,1.79,4,4v146c0,2.21-1.79,4-4,4h-146c-2.21,0-4-1.79-4-4v-146c0-2.21,1.79-4,4-4h146m0-4h-146c-4.42,0-8,3.58-8,8v146c0,4.42,3.58,8,8,8h146c4.42,0,8-3.58,8-8v-146c0-4.42-3.58-8-8-8h0Z"/>
  </g>
  <g>
    <rect class="cls-2" x="2531" y="838.5" width="158" height="158" rx="6" ry="6"/>
    <path class="cls-4" d="m2683,840.5c2.21,0,4,1.79,4,4v146c0,2.21-1.79,4-4,4h-146c-2.21,0-4-1.79-4-4v-146c0-2.21,1.79-4,4-4h146m0-4h-146c-4.42,0-8,3.58-8,8v146c0,4.42,3.58,8,8,8h146c4.42,0,8-3.58,8-8v-146c0-4.42-3.58-8-8-8h0Z"/>
  </g>
  <g>
    <rect class="cls-2" x="2693" y="838.5" width="158" height="158" rx="6" ry="6"/>
    <path class="cls-4" d="m2845,840.5c2.21,0,4,1.79,4,4v146c0,2.21-1.79,4-4,4h-146c-2.21,0-4-1.79-4-4v-146c0-2.21,1.79-4,4-4h146m0-4h-146c-4.42,0-8,3.58-8,8v146c0,4.42,3.58,8,8,8h146c4.42,0,8-3.58,8-8v-146c0-4.42-3.58-8-8-8h0Z"/>
  </g>
  <g>
    <rect class="cls-2" x="2855" y="838.5" width="158" height="158" rx="6" ry="6"/>
    <path class="cls-4" d="m3007,840.5c2.21,0,4,1.79,4,4v146c0,2.21-1.79,4-4,4h-146c-2.21,0-4-1.79-4-4v-146c0-2.21,1.79-4,4-4h146m0-4h-146c-4.42,0-8,3.58-8,8v146c0,4.42,3.58,8,8,8h146c4.42,0,8-3.58,8-8v-146c0-4.42-3.58-8-8-8h0Z"/>
  </g>
  <g>
    <rect class="cls-2" x="3017" y="838.5" width="158" height="158" rx="6" ry="6"/>
    <path class="cls-4" d="m3169,840.5c2.21,0,4,1.79,4,4v146c0,2.21-1.79,4-4,4h-146c-2.21,0-4-1.79-4-4v-146c0-2.21,1.79-4,4-4h146m0-4h-146c-4.42,0-8,3.58-8,8v146c0,4.42,3.58,8,8,8h146c4.42,0,8-3.58,8-8v-146c0-4.42-3.58-8-8-8h0Z"/>
  </g>
  <g>
    <rect class="cls-2" x="3017" y="1000.5" width="158" height="158" rx="6" ry="6"/>
    <path class="cls-4" d="m3169,1002.5c2.21,0,4,1.79,4,4v146c0,2.21-1.79,4-4,4h-146c-2.21,0-4-1.79-4-4v-146c0-2.21,1.79-4,4-4h146m0-4h-146c-4.42,0-8,3.58-8,8v146c0,4.42,3.58,8,8,8h146c4.42,0,8-3.58,8-8v-146c0-4.42-3.58-8-8-8h0Z"/>
  </g>
  <g>
    <rect class="cls-2" x="3017" y="1162.5" width="158" height="158" rx="6" ry="6"/>
    <path class="cls-4" d="m3169,1164.5c2.21,0,4,1.79,4,4v146c0,2.21-1.79,4-4,4h-146c-2.21,0-4-1.79-4-4v-146c0-2.21,1.79-4,4-4h146m0-4h-146c-4.42,0-8,3.58-8,8v146c0,4.42,3.58,8,8,8h146c4.42,0,8-3.58,8-8v-146c0-4.42-3.58-8-8-8h0Z"/>
  </g>
  <g id="movement-2" data-name="movement">
    <rect class="cls-1" x="3017" y="1324.5" width="158" height="158" rx="6" ry="6"/>
    <path class="cls-4" d="m3169,1326.5c2.21,0,4,1.79,4,4v146c0,2.21-1.79,4-4,4h-146c-2.21,0-4-1.79-4-4v-146c0-2.21,1.79-4,4-4h146m0-4h-146c-4.42,0-8,3.58-8,8v146c0,4.42,3.58,8,8,8h146c4.42,0,8-3.58,8-8v-146c0-4.42-3.58-8-8-8h0Z"/>
  </g>
  <g id="movement-3" data-name="movement">
    <rect class="cls-1" x="2855" y="1162.5" width="158" height="158" rx="6" ry="6"/>
    <path class="cls-4" d="m3007,1164.5c2.21,0,4,1.79,4,4v146c0,2.21-1.79,4-4,4h-146c-2.21,0-4-1.79-4-4v-146c0-2.21,1.79-4,4-4h146m0-4h-146c-4.42,0-8,3.58-8,8v146c0,4.42,3.58,8,8,8h146c4.42,0,8-3.58,8-8v-146c0-4.42-3.58-8-8-8h0Z"/>
  </g>
  <g id="movement-4" data-name="movement">
    <rect class="cls-1" x="2855" y="1324.5" width="158" height="158" rx="6" ry="6"/>
    <path class="cls-4" d="m3007,1326.5c2.21,0,4,1.79,4,4v146c0,2.21-1.79,4-4,4h-146c-2.21,0-4-1.79-4-4v-146c0-2.21,1.79-4,4-4h146m0-4h-146c-4.42,0-8,3.58-8,8v146c0,4.42,3.58,8,8,8h146c4.42,0,8-3.58,8-8v-146c0-4.42-3.58-8-8-8h0Z"/>
  </g>
  <g id="movement-5" data-name="movement">
    <rect class="cls-1" x="2693" y="1324.5" width="158" height="158" rx="6" ry="6"/>
    <path class="cls-4" d="m2845,1326.5c2.21,0,4,1.79,4,4v146c0,2.21-1.79,4-4,4h-146c-2.21,0-4-1.79-4-4v-146c0-2.21,1.79-4,4-4h146m0-4h-146c-4.42,0-8,3.58-8,8v146c0,4.42,3.58,8,8,8h146c4.42,0,8-3.58,8-8v-146c0-4.42-3.58-8-8-8h0Z"/>
  </g>
  <g>
    <rect class="cls-2" x="2531" y="1324.5" width="158" height="158" rx="6" ry="6"/>
    <path class="cls-4" d="m2683,1326.5c2.21,0,4,1.79,4,4v146c0,2.21-1.79,4-4,4h-146c-2.21,0-4-1.79-4-4v-146c0-2.21,1.79-4,4-4h146m0-4h-146c-4.42,0-8,3.58-8,8v146c0,4.42,3.58,8,8,8h146c4.42,0,8-3.58,8-8v-146c0-4.42-3.58-8-8-8h0Z"/>
  </g>
  <g>
    <rect class="cls-2" x="2369" y="1324.5" width="158" height="158" rx="6" ry="6"/>
    <path class="cls-4" d="m2521,1326.5c2.21,0,4,1.79,4,4v146c0,2.21-1.79,4-4,4h-146c-2.21,0-4-1.79-4-4v-146c0-2.21,1.79-4,4-4h146m0-4h-146c-4.42,0-8,3.58-8,8v146c0,4.42,3.58,8,8,8h146c4.42,0,8-3.58,8-8v-146c0-4.42-3.58-8-8-8h0Z"/>
  </g>
  <g id="movement-6" data-name="movement">
    <rect class="cls-1" x="953" y="1000.5" width="158" height="158" rx="6" ry="6"/>
    <path class="cls-4" d="m1105,1002.5c2.21,0,4,1.79,4,4v146c0,2.21-1.79,4-4,4h-146c-2.21,0-4-1.79-4-4v-146c0-2.21,1.79-4,4-4h146m0-4h-146c-4.42,0-8,3.58-8,8v146c0,4.42,3.58,8,8,8h146c4.42,0,8-3.58,8-8v-146c0-4.42-3.58-8-8-8h0Z"/>
  </g>
  <g>
    <rect class="cls-2" x="1034" y="1162.5" width="158" height="158" rx="6" ry="6"/>
    <path class="cls-4" d="m1186,1164.5c2.21,0,4,1.79,4,4v146c0,2.21-1.79,4-4,4h-146c-2.21,0-4-1.79-4-4v-146c0-2.21,1.79-4,4-4h146m0-4h-146c-4.42,0-8,3.58-8,8v146c0,4.42,3.58,8,8,8h146c4.42,0,8-3.58,8-8v-146c0-4.42-3.58-8-8-8h0Z"/>
  </g>
  <g>
    <rect class="cls-2" x="1196" y="1162.5" width="158" height="158" rx="6" ry="6"/>
    <path class="cls-4" d="m1348,1164.5c2.21,0,4,1.79,4,4v146c0,2.21-1.79,4-4,4h-146c-2.21,0-4-1.79-4-4v-146c0-2.21,1.79-4,4-4h146m0-4h-146c-4.42,0-8,3.58-8,8v146c0,4.42,3.58,8,8,8h146c4.42,0,8-3.58,8-8v-146c0-4.42-3.58-8-8-8h0Z"/>
  </g>
  <g>
    <rect class="cls-2" x="1196" y="1324.5" width="158" height="158" rx="6" ry="6"/>
    <path class="cls-4" d="m1348,1326.5c2.21,0,4,1.79,4,4v146c0,2.21-1.79,4-4,4h-146c-2.21,0-4-1.79-4-4v-146c0-2.21,1.79-4,4-4h146m0-4h-146c-4.42,0-8,3.58-8,8v146c0,4.42,3.58,8,8,8h146c4.42,0,8-3.58,8-8v-146c0-4.42-3.58-8-8-8h0Z"/>
  </g>
  <g id="brake">
    <rect class="cls-1" x="1358" y="1324.5" width="1007" height="158" rx="6" ry="6"/>
    <path class="cls-4" d="m2359,1326.5c2.21,0,4,1.79,4,4v146c0,2.21-1.79,4-4,4h-995c-2.21,0-4-1.79-4-4v-146c0-2.21,1.79-4,4-4h995m0-4h-995c-4.42,0-8,3.58-8,8v146c0,4.42,3.58,8,8,8h995c4.42,0,8-3.58,8-8v-146c0-4.42-3.58-8-8-8h0Z"/>
  </g>
  <g>
    <rect class="cls-2" x="667.5" y="1324.5" width="200.5" height="158" rx="6" ry="6"/>
    <path class="cls-4" d="m862,1326.5c2.21,0,4,1.79,4,4v146c0,2.21-1.79,4-4,4h-188.5c-2.21,0-4-1.79-4-4v-146c0-2.21,1.79-4,4-4h188.5m0-4h-188.5c-4.42,0-8,3.58-8,8v146c0,4.42,3.58,8,8,8h188.5c4.42,0,8-3.58,8-8v-146c0-4.42-3.58-8-8-8h0Z"/>
  </g>
  <g>
    <rect class="cls-2" x="872" y="1324.5" width="158" height="158" rx="6" ry="6"/>
    <path class="cls-4" d="m1024,1326.5c2.21,0,4,1.79,4,4v146c0,2.21-1.79,4-4,4h-146c-2.21,0-4-1.79-4-4v-146c0-2.21,1.79-4,4-4h146m0-4h-146c-4.42,0-8,3.58-8,8v146c0,4.42,3.58,8,8,8h146c4.42,0,8-3.58,8-8v-146c0-4.42-3.58-8-8-8h0Z"/>
  </g>
  <g>
    <rect class="cls-2" x="1034" y="1324.5" width="158" height="158" rx="6" ry="6"/>
    <path class="cls-4" d="m1186,1326.5c2.21,0,4,1.79,4,4v146c0,2.21-1.79,4-4,4h-146c-2.21,0-4-1.79-4-4v-146c0-2.21,1.79-4,4-4h146m0-4h-146c-4.42,0-8,3.58-8,8v146c0,4.42,3.58,8,8,8h146c4.42,0,8-3.58,8-8v-146c0-4.42-3.58-8-8-8h0Z"/>
  </g>
  <g id="camera">
    <rect class="cls-1" x="1358" y="1162.5" width="158" height="158" rx="6" ry="6"/>
    <path class="cls-4" d="m1510,1164.5c2.21,0,4,1.79,4,4v146c0,2.21-1.79,4-4,4h-146c-2.21,0-4-1.79-4-4v-146c0-2.21,1.79-4,4-4h146m0-4h-146c-4.42,0-8,3.58-8,8v146c0,4.42,3.58,8,8,8h146c4.42,0,8-3.58,8-8v-146c0-4.42-3.58-8-8-8h0Z"/>
  </g>
  <g>
    <rect class="cls-2" x="1520" y="1162.5" width="158" height="158" rx="6" ry="6"/>
    <path class="cls-4" d="m1672,1164.5c2.21,0,4,1.79,4,4v146c0,2.21-1.79,4-4,4h-146c-2.21,0-4-1.79-4-4v-146c0-2.21,1.79-4,4-4h146m0-4h-146c-4.42,0-8,3.58-8,8v146c0,4.42,3.58,8,8,8h146c4.42,0,8-3.58,8-8v-146c0-4.42-3.58-8-8-8h0Z"/>
  </g>
  <g>
    <rect class="cls-2" x="1682" y="1162.5" width="158" height="158" rx="6" ry="6"/>
    <path class="cls-4" d="m1834,1164.5c2.21,0,4,1.79,4,4v146c0,2.21-1.79,4-4,4h-146c-2.21,0-4-1.79-4-4v-146c0-2.21,1.79-4,4-4h146m0-4h-146c-4.42,0-8,3.58-8,8v146c0,4.42,3.58,8,8,8h146c4.42,0,8-3.58,8-8v-146c0-4.42-3.58-8-8-8h0Z"/>
  </g>
  <g>
    <rect class="cls-2" x="1844" y="1162.5" width="158" height="158" rx="6" ry="6"/>
    <path class="cls-4" d="m1996,1164.5c2.21,0,4,1.79,4,4v146c0,2.21-1.79,4-4,4h-146c-2.21,0-4-1.79-4-4v-146c0-2.21,1.79-4,4-4h146m0-4h-146c-4.42,0-8,3.58-8,8v146c0,4.42,3.58,8,8,8h146c4.42,0,8-3.58,8-8v-146c0-4.42-3.58-8-8-8h0Z"/>
  </g>
  <g id="mute">
    <rect class="cls-1" x="2006" y="1162.5" width="158" height="158" rx="6" ry="6"/>
    <path class="cls-4" d="m2158,1164.5c2.21,0,4,1.79,4,4v146c0,2.21-1.79,4-4,4h-146c-2.21,0-4-1.79-4-4v-146c0-2.21,1.79-4,4-4h146m0-4h-146c-4.42,0-8,3.58-8,8v146c0,4.42,3.58,8,8,8h146c4.42,0,8-3.58,8-8v-146c0-4.42-3.58-8-8-8h0Z"/>
  </g>
  <g>
    <rect class="cls-2" x="2168" y="1162.5" width="158" height="158" rx="6" ry="6"/>
    <path class="cls-4" d="m2320,1164.5c2.21,0,4,1.79,4,4v146c0,2.21-1.79,4-4,4h-146c-2.21,0-4-1.79-4-4v-146c0-2.21,1.79-4,4-4h146m0-4h-146c-4.42,0-8,3.58-8,8v146c0,4.42,3.58,8,8,8h146c4.42,0,8-3.58,8-8v-146c0-4.42-3.58-8-8-8h0Z"/>
  </g>
  <g>
    <rect class="cls-2" x="2330" y="1162.5" width="158" height="158" rx="6" ry="6"/>
    <path class="cls-4" d="m2482,1164.5c2.21,0,4,1.79,4,4v146c0,2.21-1.79,4-4,4h-146c-2.21,0-4-1.79-4-4v-146c0-2.21,1.79-4,4-4h146m0-4h-146c-4.42,0-8,3.58-8,8v146c0,4.42,3.58,8,8,8h146c4.42,0,8-3.58,8-8v-146c0-4.42-3.58-8-8-8h0Z"/>
  </g>
  <g>
    <rect class="cls-2" x="2492" y="1162.5" width="158" height="158" rx="6" ry="6"/>
    <path class="cls-4" d="m2644,1164.5c2.21,0,4,1.79,4,4v146c0,2.21-1.79,4-4,4h-146c-2.21,0-4-1.79-4-4v-146c0-2.21,1.79-4,4-4h146m0-4h-146c-4.42,0-8,3.58-8,8v146c0,4.42,3.58,8,8,8h146c4.42,0,8-3.58,8-8v-146c0-4.42-3.58-8-8-8h0Z"/>
  </g>
  <g>
    <rect class="cls-2" x="2654" y="1162.5" width="197" height="158" rx="6" ry="6"/>
    <path class="cls-4" d="m2845,1164.5c2.21,0,4,1.79,4,4v146c0,2.21-1.79,4-4,4h-185c-2.21,0-4-1.79-4-4v-146c0-2.21,1.79-4,4-4h185m0-4h-185c-4.42,0-8,3.58-8,8v146c0,4.42,3.58,8,8,8h185c4.42,0,8-3.58,8-8v-146c0-4.42-3.58-8-8-8h0Z"/>
  </g>
  <g id="movement-7" data-name="movement">
    <rect class="cls-1" x="1115" y="1000.5" width="158" height="158" rx="6" ry="6"/>
    <path class="cls-4" d="m1267,1002.5c2.21,0,4,1.79,4,4v146c0,2.21-1.79,4-4,4h-146c-2.21,0-4-1.79-4-4v-146c0-2.21,1.79-4,4-4h146m0-4h-146c-4.42,0-8,3.58-8,8v146c0,4.42,3.58,8,8,8h146c4.42,0,8-3.58,8-8v-146c0-4.42-3.58-8-8-8h0Z"/>
  </g>
  <g id="movement-8" data-name="movement">
    <rect class="cls-1" x="1277" y="1000.5" width="158" height="158" rx="6" ry="6"/>
    <path class="cls-4" d="m1429,1002.5c2.21,0,4,1.79,4,4v146c0,2.21-1.79,4-4,4h-146c-2.21,0-4-1.79-4-4v-146c0-2.21,1.79-4,4-4h146m0-4h-146c-4.42,0-8,3.58-8,8v146c0,4.42,3.58,8,8,8h146c4.42,0,8-3.58,8-8v-146c0-4.42-3.58-8-8-8h0Z"/>
  </g>
  <g>
    <rect class="cls-2" x="1439" y="1000.5" width="158" height="158" rx="6" ry="6"/>
    <path class="cls-4" d="m1591,1002.5c2.21,0,4,1.79,4,4v146c0,2.21-1.79,4-4,4h-146c-2.21,0-4-1.79-4-4v-146c0-2.21,1.79-4,4-4h146m0-4h-146c-4.42,0-8,3.58-8,8v146c0,4.42,3.58,8,8,8h146c4.42,0,8-3.58,8-8v-146c0-4.42-3.58-8-8-8h0Z"/>
  </g>
  <g>
    <rect class="cls-2" x="1601" y="1000.5" width="158" height="158" rx="6" ry="6"/>
    <path class="cls-4" d="m1753,1002.5c2.21,0,4,1.79,4,4v146c0,2.21-1.79,4-4,4h-146c-2.21,0-4-1.79-4-4v-146c0-2.21,1.79-4,4-4h146m0-4h-146c-4.42,0-8,3.58-8,8v146c0,4.42,3.58,8,8,8h146c4.42,0,8-3.58,8-8v-146c0-4.42-3.58-8-8-8h0Z"/>
  </g>
  <g id="horn">
    <rect class="cls-1" x="1763" y="1000.5" width="158" height="158" rx="6" ry="6"/>
    <path class="cls-4" d="m1915,1002.5c2.21,0,4,1.79,4,4v146c0,2.21-1.79,4-4,4h-146c-2.21,0-4-1.79-4-4v-146c0-2.21,1.79-4,4-4h146m0-4h-146c-4.42,0-8,3.58-8,8v146c0,4.42,3.58,8,8,8h146c4.42,0,8-3.58,8-8v-146c0-4.42-3.58-8-8-8h0Z"/>
  </g>
  <g>
    <rect class="cls-2" x="1925" y="1000.5" width="158" height="158" rx="6" ry="6"/>
    <path class="cls-4" d="m2077,1002.5c2.21,0,4,1.79,4,4v146c0,2.21-1.79,4-4,4h-146c-2.21,0-4-1.79-4-4v-146c0-2.21,1.79-4,4-4h146m0-4h-146c-4.42,0-8,3.58-8,8v146c0,4.42,3.58,8,8,8h146c4.42,0,8-3.58,8-8v-146c0-4.42-3.58-8-8-8h0Z"/>
  </g>
  <g>
    <rect class="cls-2" x="2087" y="1000.5" width="158" height="158" rx="6" ry="6"/>
    <path class="cls-4" d="m2239,1002.5c2.21,0,4,1.79,4,4v146c0,2.21-1.79,4-4,4h-146c-2.21,0-4-1.79-4-4v-146c0-2.21,1.79-4,4-4h146m0-4h-146c-4.42,0-8,3.58-8,8v146c0,4.42,3.58,8,8,8h146c4.42,0,8-3.58,8-8v-146c0-4.42-3.58-8-8-8h0Z"/>
  </g>
  <g>
    <rect class="cls-2" x="2249" y="1000.5" width="158" height="158" rx="6" ry="6"/>
    <path class="cls-4" d="m2401,1002.5c2.21,0,4,1.79,4,4v146c0,2.21-1.79,4-4,4h-146c-2.21,0-4-1.79-4-4v-146c0-2.21,1.79-4,4-4h146m0-4h-146c-4.42,0-8,3.58-8,8v146c0,4.42,3.58,8,8,8h146c4.42,0,8-3.58,8-8v-146c0-4.42-3.58-8-8-8h0Z"/>
  </g>
  <g>
    <rect class="cls-2" x="2411" y="1000.5" width="158" height="158" rx="6" ry="6"/>
    <path class="cls-4" d="m2563,1002.5c2.21,0,4,1.79,4,4v146c0,2.21-1.79,4-4,4h-146c-2.21,0-4-1.79-4-4v-146c0-2.21,1.79-4,4-4h146m0-4h-146c-4.42,0-8,3.58-8,8v146c0,4.42,3.58,8,8,8h146c4.42,0,8-3.58,8-8v-146c0-4.42-3.58-8-8-8h0Z"/>
  </g>
  <g>
    <rect class="cls-2" x="2573" y="1000.5" width="158" height="158" rx="6" ry="6"/>
    <path class="cls-4" d="m2725,1002.5c2.21,0,4,1.79,4,4v146c0,2.21-1.79,4-4,4h-146c-2.21,0-4-1.79-4-4v-146c0-2.21,1.79-4,4-4h146m0-4h-146c-4.42,0-8,3.58-8,8v146c0,4.42,3.58,8,8,8h146c4.42,0,8-3.58,8-8v-146c0-4.42-3.58-8-8-8h0Z"/>
  </g>
  <g>
    <rect class="cls-2" x="2735" y="1000.5" width="278" height="158" rx="6" ry="6"/>
    <path class="cls-4" d="m3007,1002.5c2.21,0,4,1.79,4,4v146c0,2.21-1.79,4-4,4h-266c-2.21,0-4-1.79-4-4v-146c0-2.21,1.79-4,4-4h266m0-4h-266c-4.42,0-8,3.58-8,8v146c0,4.42,3.58,8,8,8h266c4.42,0,8-3.58,8-8v-146c0-4.42-3.58-8-8-8h0Z"/>
  </g>
  <g id="movement-key">
    <path class="cls-3" d="m1133.03,892.3h7.63l3.53,38.74h.14l3.74-38.74h8.64l3.74,38.74h.14l3.53-38.74h6.84l-5.11,50.4h-9.86l-3.6-33.98h-.14l-3.6,33.98h-10.51l-5.11-50.4Z"/>
  </g>
  <g id="escape-key">
    <path class="cls-3" d="m708.56,730.3h21.6v7.2h-13.68v13.32h10.87v7.2h-10.87v15.48h13.68v7.2h-21.6v-50.4Z"/>
    <path class="cls-3" d="m736.42,778.14c-1.97-2.18-2.95-5.32-2.95-9.4v-2.88h7.49v3.46c0,3.26,1.37,4.9,4.1,4.9,1.34,0,2.36-.4,3.06-1.19.7-.79,1.04-2.08,1.04-3.85,0-2.11-.48-3.97-1.44-5.58-.96-1.61-2.74-3.54-5.33-5.8-3.27-2.88-5.54-5.48-6.84-7.81-1.3-2.33-1.94-4.96-1.94-7.88,0-3.98,1.01-7.07,3.02-9.25,2.02-2.18,4.94-3.28,8.78-3.28s6.66,1.09,8.6,3.28c1.94,2.19,2.92,5.32,2.92,9.4v2.09h-7.49v-2.59c0-1.73-.34-2.99-1.01-3.78-.67-.79-1.66-1.19-2.95-1.19-2.64,0-3.96,1.61-3.96,4.82,0,1.82.49,3.53,1.48,5.11.98,1.58,2.77,3.5,5.36,5.76,3.31,2.88,5.59,5.5,6.84,7.85,1.25,2.35,1.87,5.11,1.87,8.28,0,4.13-1.02,7.3-3.06,9.5-2.04,2.21-5,3.31-8.89,3.31s-6.74-1.09-8.71-3.28Z"/>
    <path class="cls-3" d="m764.1,778.18c-1.99-2.16-2.99-5.21-2.99-9.14v-27.07c0-3.94,1-6.98,2.99-9.14,1.99-2.16,4.88-3.24,8.68-3.24s6.68,1.08,8.68,3.24c1.99,2.16,2.99,5.21,2.99,9.14v5.33h-7.49v-5.83c0-3.12-1.32-4.68-3.96-4.68s-3.96,1.56-3.96,4.68v28.15c0,3.07,1.32,4.61,3.96,4.61s3.96-1.54,3.96-4.61v-7.7h7.49v7.13c0,3.94-1,6.98-2.99,9.14-1.99,2.16-4.88,3.24-8.68,3.24s-6.68-1.08-8.68-3.24Z"/>
  </g>
  <g id="movement-key-2" data-name="movement-key">
    <path class="cls-3" d="m1026.64,1054.3h10.73l8.21,50.4h-7.92l-1.44-10.01v.14h-9l-1.44,9.86h-7.34l8.21-50.4Zm8.64,33.7l-3.53-24.91h-.14l-3.46,24.91h7.13Z"/>
  </g>
  <g id="movement-key-3" data-name="movement-key">
    <path class="cls-3" d="m1185.14,1102.14c-1.97-2.18-2.95-5.32-2.95-9.4v-2.88h7.49v3.46c0,3.26,1.37,4.9,4.1,4.9,1.34,0,2.36-.4,3.06-1.19.7-.79,1.04-2.08,1.04-3.85,0-2.11-.48-3.97-1.44-5.58-.96-1.61-2.74-3.54-5.33-5.8-3.26-2.88-5.54-5.48-6.84-7.81s-1.94-4.96-1.94-7.88c0-3.98,1.01-7.07,3.02-9.25,2.02-2.18,4.94-3.28,8.78-3.28s6.66,1.09,8.6,3.28c1.94,2.19,2.92,5.32,2.92,9.4v2.09h-7.49v-2.59c0-1.73-.34-2.99-1.01-3.78-.67-.79-1.66-1.19-2.95-1.19-2.64,0-3.96,1.61-3.96,4.82,0,1.83.49,3.53,1.48,5.11.98,1.58,2.77,3.5,5.36,5.76,3.31,2.88,5.59,5.5,6.84,7.85,1.25,2.35,1.87,5.11,1.87,8.28,0,4.13-1.02,7.3-3.06,9.5-2.04,2.21-5,3.31-8.89,3.31s-6.75-1.09-8.71-3.28Z"/>
  </g>
  <g id="movement-key-4" data-name="movement-key">
    <path class="cls-3" d="m1344.05,1054.3h12.1c3.94,0,6.89,1.06,8.86,3.17,1.97,2.11,2.95,5.21,2.95,9.29v25.49c0,4.08-.98,7.18-2.95,9.29-1.97,2.11-4.92,3.17-8.86,3.17h-12.1v-50.4Zm11.95,43.2c1.3,0,2.29-.38,2.99-1.15.7-.77,1.04-2.02,1.04-3.74v-26.21c0-1.73-.35-2.98-1.04-3.74-.7-.77-1.69-1.15-2.99-1.15h-4.03v36h4.03Z"/>
  </g>
  <g id="reset-key">
    <path class="cls-3" d="m1463.8,892.3h11.74c4.08,0,7.06.95,8.93,2.84,1.87,1.9,2.81,4.81,2.81,8.75v3.1c0,5.23-1.73,8.54-5.18,9.94v.14c1.92.58,3.28,1.75,4.07,3.53.79,1.78,1.19,4.15,1.19,7.13v8.86c0,1.44.05,2.6.14,3.49.1.89.33,1.76.72,2.63h-8.06c-.29-.82-.48-1.58-.58-2.3-.1-.72-.14-2.02-.14-3.89v-9.22c0-2.3-.37-3.91-1.12-4.82-.74-.91-2.03-1.37-3.85-1.37h-2.74v21.6h-7.92v-50.4Zm10.8,21.6c1.58,0,2.77-.41,3.56-1.22.79-.82,1.19-2.18,1.19-4.1v-3.89c0-1.82-.32-3.14-.97-3.96-.65-.82-1.67-1.22-3.06-1.22h-3.6v14.4h2.88Z"/>
  </g>
  <g id="camera-key">
    <path class="cls-3" d="m1428.32,1264.18c-1.99-2.16-2.99-5.21-2.99-9.14v-27.07c0-3.94,1-6.98,2.99-9.14,1.99-2.16,4.88-3.24,8.68-3.24s6.68,1.08,8.68,3.24c1.99,2.16,2.99,5.21,2.99,9.14v5.33h-7.49v-5.83c0-3.12-1.32-4.68-3.96-4.68s-3.96,1.56-3.96,4.68v28.15c0,3.07,1.32,4.61,3.96,4.61s3.96-1.54,3.96-4.61v-7.7h7.49v7.13c0,3.94-1,6.98-2.99,9.14-1.99,2.16-4.88,3.24-8.68,3.24s-6.68-1.08-8.68-3.24Z"/>
  </g>
  <g id="horn-key">
    <path class="cls-3" d="m1829.83,1054.3h7.92v20.52h8.5v-20.52h7.92v50.4h-7.92v-22.68h-8.5v22.68h-7.92v-50.4Z"/>
  </g>
  <g id="mute-key">
    <path class="cls-3" d="m2068.58,1216.3h11.3l5.04,36.07h.14l5.04-36.07h11.3v50.4h-7.49v-38.16h-.14l-5.76,38.16h-6.62l-5.76-38.16h-.14v38.16h-6.91v-50.4Z"/>
  </g>
  <g id="pause-key">
    <path class="cls-3" d="m2436.26,892.3h11.66c3.94,0,6.89,1.06,8.86,3.17,1.97,2.11,2.95,5.21,2.95,9.29v4.97c0,4.08-.98,7.18-2.95,9.29-1.97,2.11-4.92,3.17-8.86,3.17h-3.74v20.52h-7.92v-50.4Zm11.66,22.68c1.3,0,2.27-.36,2.92-1.08.65-.72.97-1.94.97-3.67v-5.98c0-1.73-.32-2.95-.97-3.67-.65-.72-1.62-1.08-2.92-1.08h-3.74v15.48h3.74Z"/>
  </g>
  <g id="brake-key">
    <path class="cls-3" d="m1798.79,1426.14c-1.97-2.18-2.95-5.32-2.95-9.4v-2.88h7.49v3.46c0,3.26,1.37,4.9,4.1,4.9,1.34,0,2.36-.4,3.06-1.19.7-.79,1.04-2.08,1.04-3.85,0-2.11-.48-3.97-1.44-5.58-.96-1.61-2.74-3.54-5.33-5.8-3.27-2.88-5.54-5.48-6.84-7.81-1.3-2.33-1.94-4.96-1.94-7.88,0-3.98,1.01-7.07,3.02-9.25,2.02-2.18,4.94-3.28,8.78-3.28s6.66,1.09,8.6,3.28c1.94,2.18,2.92,5.32,2.92,9.4v2.09h-7.49v-2.59c0-1.73-.34-2.99-1.01-3.78-.67-.79-1.66-1.19-2.95-1.19-2.64,0-3.96,1.61-3.96,4.82,0,1.82.49,3.53,1.48,5.11.98,1.58,2.77,3.5,5.36,5.76,3.31,2.88,5.59,5.5,6.84,7.85,1.25,2.35,1.87,5.11,1.87,8.28,0,4.13-1.02,7.3-3.06,9.5-2.04,2.21-5,3.31-8.89,3.31s-6.74-1.09-8.71-3.28Z"/>
    <path class="cls-3" d="m1823.99,1378.3h11.66c3.94,0,6.89,1.06,8.86,3.17,1.97,2.11,2.95,5.21,2.95,9.29v4.97c0,4.08-.98,7.18-2.95,9.29-1.97,2.11-4.92,3.17-8.86,3.17h-3.74v20.52h-7.92v-50.4Zm11.66,22.68c1.3,0,2.27-.36,2.92-1.08.65-.72.97-1.94.97-3.67v-5.98c0-1.73-.32-2.95-.97-3.67-.65-.72-1.62-1.08-2.92-1.08h-3.74v15.48h3.74Z"/>
    <path class="cls-3" d="m1855.38,1378.3h10.73l8.21,50.4h-7.92l-1.44-10.01v.14h-9l-1.44,9.86h-7.34l8.21-50.4Zm8.64,33.7l-3.53-24.91h-.14l-3.46,24.91h7.13Z"/>
    <path class="cls-3" d="m1880.47,1426.18c-1.99-2.16-2.99-5.21-2.99-9.14v-27.07c0-3.94,1-6.98,2.99-9.14,1.99-2.16,4.88-3.24,8.68-3.24s6.68,1.08,8.68,3.24c1.99,2.16,2.99,5.21,2.99,9.14v5.33h-7.49v-5.83c0-3.12-1.32-4.68-3.96-4.68s-3.96,1.56-3.96,4.68v28.15c0,3.07,1.32,4.61,3.96,4.61s3.96-1.54,3.96-4.61v-7.7h7.49v7.13c0,3.94-1,6.98-2.99,9.14-1.99,2.16-4.88,3.24-8.68,3.24s-6.68-1.08-8.68-3.24Z"/>
    <path class="cls-3" d="m1905.56,1378.3h21.6v7.2h-13.68v13.32h10.87v7.2h-10.87v15.48h13.68v7.2h-21.6v-50.4Z"/>
  </g>
  <path id="movement-key-5" data-name="movement-key" class="cls-3" d="m2952,1235.5l-4.35,4.2-10.65-10.65v36.45h-6v-36.45l-10.65,10.65-4.35-4.2,18-18,18,18Z"/>
  <path id="movement-key-6" data-name="movement-key" class="cls-3" d="m2916,1409.5l4.35-4.2,10.65,10.65v-36.45s6,0,6,0v36.45s10.65-10.65,10.65-10.65l4.35,4.2-18,18-18-18Z"/>
  <path id="movement-key-7" data-name="movement-key" class="cls-3" d="m2766,1385.5l4.2,4.35-10.65,10.65h36.45s0,6,0,6h-36.45s10.65,10.65,10.65,10.65l-4.2,4.35-18-18,18-18Z"/>
  <path id="movement-key-8" data-name="movement-key" class="cls-3" d="m3102,1421.5l-4.2-4.35,10.65-10.65h-36.45s0-6,0-6h36.45s-10.65-10.65-10.65-10.65l4.2-4.35,18,18-18,18Z"/>
</svg>